# xmcd CD database file
#
# Track frame offsets:
#	150
#	12000
#	24179
#	42790
#	60312
#	76090
#	91241
#	105973
#	122427
#	144447
#	163847
#	183293
#	199041
#	213367
#	229221
#	242822
#	257997
#	272658
#	288457
#	302306
#	316671
#
# Disc length: 4566 seconds
#
# Revision: 3
# Processed by: cddbd v1.5.2PL0 Copyright (c) Steve Scherf et al.
# Submitted via: CDex 2.17
#
DISCID=0311d415
DTITLE=Rick Riordan - Die Abenteuer des Apollo 1 -  Das verborgene Orakel
DYEAR=2017
DGENRE=Jugend
TTITLE0=Das verborgene Orakel
TTITLE1=Das verborgene Orakel
TTITLE2=Das verborgene Orakel
TTITLE3=Das verborgene Orakel
TTITLE4=Das verborgene Orakel
TTITLE5=Das verborgene Orakel
TTITLE6=Das verborgene Orakel
TTITLE7=Das verborgene Orakel
TTITLE8=Das verborgene Orakel
TTITLE9=Das verborgene Orakel
TTITLE10=Das verborgene Orakel
TTITLE11=Das verborgene Orakel
TTITLE12=Das verborgene Orakel
TTITLE13=Das verborgene Orakel
TTITLE14=Das verborgene Orakel
TTITLE15=Das verborgene Orakel
TTITLE16=Das verborgene Orakel
TTITLE17=Das verborgene Orakel
TTITLE18=Das verborgene Orakel
TTITLE19=Das verborgene Orakel
TTITLE20=Das verborgene Orakel
EXTD=YEAR: 2017
EXTT0=
EXTT1=
EXTT2=
EXTT3=
EXTT4=
EXTT5=
EXTT6=
EXTT7=
EXTT8=
EXTT9=
EXTT10=
EXTT11=
EXTT12=
EXTT13=
EXTT14=
EXTT15=
EXTT16=
EXTT17=
EXTT18=
EXTT19=
EXTT20=
PLAYORDER=
